<?xml version="1.0" standalone="yes"?>
<svg xmlns="http://www.w3.org/2000/svg" width="483" height="404">
<path style="fill:#ffffff; stroke:none;" d="M0 0L0 404L483 404L483 0L0 0z"/>
<path style="fill:#050505; stroke:none;" d="M153 16L152 20L153 20L153 16M217 73C221.407 83.6431 239.088 74.7144 247 72.5191C261.113 68.6035 288.167 58.1895 300.223 71.437C310.75 83.0044 314.768 103.96 321.51 118C325.38 126.058 329.09 133.972 339 134L338 130L387.944 127.196L405 130C407.363 131.601 411.769 131.088 413.49 133.216C415.826 136.104 412.325 141.155 411.424 144C409.984 148.545 410.472 153.479 412.259 157.877C414.474 163.328 422.252 163.723 421.988 170.099C421.688 177.375 413.059 191.517 418.373 198.115C424.946 206.279 424.874 185.165 425.734 182.611C428.517 174.349 433.083 162.723 432.528 154C432.116 147.516 428.764 141.5 428 135C423.581 131.848 420.468 126.465 415.546 124.14C409.921 121.481 403.063 122.647 397.089 122.507C385.685 122.239 374.531 121.792 363 122.033C354.765 122.204 340.62 120.401 338 130C325.888 117.175 320.435 99.7332 313.334 83.9105C310.443 77.4699 309.12 70.5051 303.7 65.513C296.972 59.3154 287.559 59.7092 279 60.0917C258.013 61.0296 237.608 69.4569 217 73M206 71C210.994 92.1292 208.201 116.653 207.404 138.089C207.103 146.196 202.144 157.394 212 161L213 72L206 71M294 83C294.244 91.4633 292.592 98.6871 291.621 106.99C291.276 109.933 292.342 114.616 289.81 116.786C284.72 121.148 272.445 121.438 266 122.926C261.343 124.002 250.335 127.746 246.174 124.403C240.822 120.102 242.515 102.432 241.786 96.0263C241.594 94.3384 240.396 86.7918 237.028 89.1332C234.494 90.8954 235.82 96.4787 235.914 99.0024C236.158 105.572 234.748 127.355 240.826 131.254C244.329 133.501 250.173 131.764 254 131.349C264.864 130.169 283.038 128.511 292 122C295.28 122.138 300.137 122.803 303.027 120.851C307.797 117.63 300.407 115.689 298 116C296.011 105.988 306.263 86.1765 297.825 78.0428C294.979 75.299 290.199 77.5122 287 78.3464C277.797 80.7461 269.044 83.1611 260 86.0958C257.374 86.9481 250.689 87.2221 249.173 89.8372C245.802 95.6539 262.706 91.4158 264 90.8438C267.917 89.1124 271.779 87.3697 276 86.51L294 83z"/>
<path style="fill:#ffffff; stroke:none;" d="M316 96L317 100L318 100L316 96M240 120L242 123L240 120M286 121L286 122L292 121L286 121M284 121L285 122L284 121M420 138C417.361 148.092 418.072 154.365 427 161C426.845 152.692 424.816 144.867 420 138z"/>
<path style="fill:#050505; stroke:none;" d="M206 162C200.446 153.921 186.576 156.901 178 157.642C155.211 159.611 130.863 161.198 108 160.918C102.072 160.846 82.468 154.794 79.173 162.559C77.7734 165.856 82.7835 167.38 85.0377 167.675C92.3308 168.628 100.605 167.083 108 166.982C126.672 166.728 145.585 162.703 164 162.53C176.85 162.409 194.001 166.854 206 162M330 161C316.898 166.921 334.221 192.75 331.856 174.999L331.14 170.001C330.714 167.002 330.282 164.015 330 161z"/>
<path style="fill:#ffffff; stroke:none;" d="M154 163L155 164L154 163z"/>
<path style="fill:#050505; stroke:none;" d="M68 175C68.0081 195.189 71.4653 215.701 70.2757 235.864C69.7347 245.033 66.1154 254.985 64.1643 264C62.874 269.962 58.7252 287.144 68.0956 288.778C75.1617 290.011 71.0815 283.338 67 282C69.5705 272.73 77.687 266.521 84.897 260.671C103.714 245.404 126.356 235.587 150.945 240.933C163.374 243.635 183.073 252.327 184 267C191.083 266.644 190.335 261.092 187.282 256.016C183.176 249.19 175.991 244.376 169 240.859C130.868 221.672 93.4131 244.272 66 270C78.8407 244.724 73 216.217 73 189L76 189C74.9591 183.156 73.3674 178.069 68 175M211 180C200.797 189.227 205.641 224.014 216 232L210.117 200.009L211 180M273 258L279 258L279 253L280 253L290 255L289 251L283 252C292.162 239.475 310.504 230.509 325 225.577C330.73 223.627 338.088 221.992 343.825 224.719C350.675 227.975 349.066 235.248 353.424 240.166C356.748 243.916 360.419 241.772 362 238C355.14 232.038 354.842 222.258 344.989 219.114C326.279 213.145 300.052 229.827 286.033 240.678C280.052 245.307 274.654 250.421 273 258M369 234C376.869 225.367 396.212 228.549 407 226L404 241L381 241L382 237L368 242L369 247C378.469 246.824 387.501 244.401 396.982 245.843C399.973 246.299 406.169 249.812 408.909 248.063C411.978 246.105 413.547 229.049 414.323 225.124C414.727 223.085 414.703 220.776 412.376 220.019C408.91 218.89 404.386 221.104 401 221.804C392.034 223.656 382.967 223.288 373.962 225.28C368.748 226.433 364.135 229.081 369 234M15 257C16.388 259.91 20.413 262.646 21 258C24.5115 263.638 20.8732 274.298 25.2642 278.513C30.3063 283.353 54.2946 281.777 57.6365 275.196C61.6075 267.376 58.9718 251.696 59 243C43.4266 243.863 28.0379 248.462 15 257z"/>
<path style="fill:#ffffff; stroke:none;" d="M30 275L52 273L52 249C46.7301 249.607 33.8838 251.074 30.8237 255.885C27.9833 260.352 29.6617 269.914 30 275M281 252L282 253L281 252z"/>
<path style="fill:#050505; stroke:none;" d="M200 271C217.23 271.502 234.012 266.894 251 264.891C253.384 264.61 268.02 264.681 265.752 259.615C263.853 255.372 253.413 257.951 250 258.396C238.594 259.883 227.389 262.43 216 263.999C209.543 264.888 203.427 264.75 200 271M326 259.627C297.793 261.48 273.454 290.405 265.267 315.548C257.988 337.902 266.744 359.529 291.642 364.595C298.538 365.999 305.955 367.167 313 366.784C337.139 365.471 364.998 356.025 379.251 334.99C397.933 307.421 395.475 267.628 357 261.452C347.002 259.847 336.116 258.962 326 259.627z"/>
<path style="fill:#ffffff; stroke:none;" d="M234 264L234 265L241 264L234 264M225 266L225 267L233 265L225 266M341 265C342.53 269.689 341.214 272.426 338 276L339 267C309.289 259.981 283.104 286.659 271.979 312C263.773 330.693 267.956 353.472 290.728 358.43C320.451 364.901 355.722 357.642 374.955 331.991C382.36 322.115 389.596 300.706 385.029 288.39C378.816 271.633 357.089 264.735 341 265M214 267L214 268L219 266L214 267z"/>
<path style="fill:#050505; stroke:none;" d="M318 283C327.034 280.886 358.386 284.334 350.393 300.941C347.083 307.817 329.001 321.009 322.468 310.982C317.766 303.763 331.148 296.539 337 301L340 301C339.074 287.887 323.298 293.866 318.269 301.049C311.569 310.619 317.746 319.825 328.998 319.818C339.298 319.811 351.736 312.376 356.047 302.94C364.63 284.153 327.228 266.535 318 283z"/>
<path style="fill:#ffffff; stroke:none;" d="M382 278L383 279L382 278z"/>
<path style="fill:#050505; stroke:none;" d="M190 363C195.992 341.903 197.612 324.31 183.573 305.159C174.535 292.831 159.254 287.898 144.996 285.188C120.793 280.589 102.199 281.276 83.4984 300.332C58.7487 325.552 39.3126 376.51 85 391.08C92.4909 393.469 101.137 395.325 109 395.76C140.948 397.528 165.818 381.083 190 363z"/>
<path style="fill:#ffffff; stroke:none;" d="M384 281L386 283L384 281M119 283L119 285L121 285L121 283L119 283M111 286L106 288L106 289L111 286M144 291L146 298C131.352 286.642 122.231 293.141 108 302C112.673 293.938 120.541 290.086 129 287C123.067 286.002 118.29 289.121 112.803 290.908C89.9168 298.361 76.1942 313.684 66.8594 336.001C63.5256 343.971 59.5751 357.256 62.8113 365.719C69.6165 383.514 90.5251 387.673 107 390.056C132.52 393.748 174.697 378.395 187.271 354.999C202.724 326.246 171.632 293.306 144 291M130 288L131 289L130 288z"/>
<path style="fill:#050505; stroke:none;" d="M132.452 304.98C121.272 307.751 106.343 318.91 104.266 330.995C102.063 343.812 121.032 344.137 129 342.272C138.268 340.102 152.848 334.598 156.51 324.892C161.257 312.309 142.843 302.405 132.452 304.98z"/>
<path style="fill:#ffffff; stroke:none;" d="M132 310.313C120.189 313.333 97.8549 338.032 122 337.012C124.355 336.913 126.702 336.728 129 336.178C135.695 334.577 148.02 330.643 150.889 323.657C154.592 314.642 138.557 308.636 132 310.313z"/>
<path style="fill:#050505; stroke:none;" d="M139 314L139 316L141 316L141 314L139 314z"/>
<path style="fill:#ffffff; stroke:none;" d="M117.667 340.333L118.333 340.667L117.667 340.333M296.667 362.333L297.333 362.667L296.667 362.333M163 379L164 380L163 379M154.667 383.333L155.333 383.667L154.667 383.333M152 384L153 385L152 384z"/>
</svg>
