<?xml version="1.0" encoding="utf-8"?>
<!-- Svg Vector Icons : http://www.onlinewebfonts.com/icon -->
<!DOCTYPE svg PUBLIC "-//W3C//DTD SVG 1.1//EN" "http://www.w3.org/Graphics/SVG/1.1/DTD/svg11.dtd">
<svg version="1.1" xmlns="http://www.w3.org/2000/svg" xmlns:xlink="http://www.w3.org/1999/xlink" x="0px" y="0px" viewBox="0 0 1000 1000" enable-background="new 0 0 1000 1000" xml:space="preserve">
<metadata> Svg Vector Icons : http://www.onlinewebfonts.com/icon </metadata>
<g><g transform="translate(0.000000,511.000000) scale(0.100000,-0.100000)"><path d="M3925,4008.8c-907.8-56.9-1393.4-183.8-1653.7-433.1c-140-135.6-332.5-428.8-509.7-780.9c-185.9-365.3-297.5-673.7-437.5-1211.9l-24.1-94.1l-107.2,161.9c-115.9,177.2-249.4,299.7-398.1,367.5c-133.4,61.2-459.4,61.2-555.6,2.2c-111.6-67.8-146.6-192.5-137.8-476.9c8.7-258.1,32.8-321.6,144.4-393.7c50.3-32.8,124.7-39.4,503.1-45.9c245-4.4,444.1-10.9,444.1-15.3c0-4.4-48.1-59.1-109.4-120.3C718.1,594.1,503.8,152.2,449.1-337.8c-35-332.5,32.8-1314.7,122.5-1747.8c45.9-229.7,153.1-514.1,229.7-621.2c37.2-52.5,107.2-107.2,168.4-137.8l102.8-48.1l10.9-339.1c13.1-395.9,35-459.4,181.6-527.2c78.8-35,144.4-41.6,463.8-41.6c317.2,0,385,6.6,463.8,41.6c146.6,67.8,168.4,122.5,179.4,437.5l6.6,271.2l245-13.1c133.4-8.8,455-26.3,713.1-41.6c608.1-32.8,2716.9-32.8,3325,0c258.1,15.3,581.9,32.8,717.5,41.6l245,13.1v-249.4c0-304.1,28.4-378.4,175-450.6c89.7-45.9,126.9-50.3,470.3-50.3c317.2,0,385,6.6,463.8,41.6c146.6,67.8,168.4,131.3,181.6,527.2l10.9,339.1l102.8,48.1c126.9,59,192.5,146.5,280,363.1c126.9,317.2,192.5,732.8,240.6,1533.4c28.4,455,6.6,732.8-80.9,1006.3c-100.6,321.6-297.5,647.5-553.4,910c-61.3,61.2-109.4,115.9-109.4,120.3c0,4.4,199.1,10.9,444.1,15.3c483.4,6.6,516.3,15.3,599.4,142.2c59.1,87.5,70,498.7,17.5,632.2c-56.9,148.7-129.1,183.7-371.9,183.7c-310.6-2.2-490-107.2-686.9-406.9l-109.4-166.3l-24.1,94.1c-181.6,689.1-341.2,1087.2-616.9,1537.8c-220.9,363.1-325.9,483.4-531.6,601.6c-214.4,124.7-570.9,205.6-1159.4,264.7C6062.2,4017.5,4321,4032.8,3925,4008.8z M6256.9,3374.4c638.8-63.4,1087.2-172.8,1194.4-286.6c80.9-87.5,389.4-717.5,498.8-1017.2c98.4-273.4,229.7-743.7,212.2-770c-4.4-8.8-155.3-4.4-334.7,8.8c-1450.3,115.9-2946.5,140-4458.1,72.2c-520.6-21.9-1382.5-78.8-1485.3-96.2c-61.3-10.9-61.3-8.8-45.9,70c30.6,170.6,170.6,619.1,264.7,859.7c122.5,306.2,371.9,794.1,448.4,875c100.6,109.4,570.9,223.1,1190,286.6C4310,3433.5,5679.4,3433.5,6256.9,3374.4z M2297.5,237.5c253.8-113.8,385-310.6,400.3-595c8.8-157.5,2.2-192.5-50.3-312.8c-70-153.1-203.4-288.8-356.6-358.7c-159.7-74.4-413.4-67.8-577.5,13.1C1291.3-808.1,1192.8-245.9,1521,91C1726.6,303.1,2026.3,360,2297.5,237.5z M8273.7,235.3C8689.4,47.2,8805.3-506.2,8496.9-854c-48.1-56.9-142.2-126.9-212.2-161.9c-164.1-80.9-417.8-87.5-577.5-13.1c-135.6,63.4-280,199.1-345.6,328.1c-80.9,159.7-89.7,422.2-17.5,579.7c70,150.9,150.9,245,275.6,317.2C7831.9,320.6,8052.8,333.8,8273.7,235.3z M6543.4-1105.6c161.9-129.1,124.7-273.4-137.8-544.7c-210-214.4-129-203.4-1406.5-203.4s-1196.6-10.9-1406.6,203.4c-225.3,231.9-273.4,343.4-203.4,472.5c61.3,111.6,26.3,109.4,1620.9,109.4C6388.1-1066.2,6501.9-1070.6,6543.4-1105.6z"/></g></g>
</svg>