<?xml version="1.0" standalone="yes"?>
<svg xmlns="http://www.w3.org/2000/svg" width="108" height="121">
<path style="fill:#fdfdfd; stroke:none;" d="M0 0L0 121L108 121L108 0L0 0z"/>
<path style="fill:#a3a3a3; stroke:none;" d="M39.6667 5.33334L40.3333 5.66666L39.6667 5.33334z"/>
<path style="fill:#303030; stroke:none;" d="M38 6L37 9L38 6z"/>
<path style="fill:#0a0a0a; stroke:none;" d="M39 6L39 7L43 8L43 7L39 6z"/>
<path style="fill:#626262; stroke:none;" d="M42 6L43 7L42 6z"/>
<path style="fill:#fdfdfd; stroke:none;" d="M39 7L37 12L34 11L33.9198 28.9992L42 49L43 49C45.0304 41.5764 48.0524 32.0984 54 27C44.4971 45.0648 40.4195 62.6765 40 83C31.5447 84.3165 31.0048 91.8169 31 99C36.0873 95.7345 37.9246 89.0377 40.9228 84C47.2368 73.3913 54.5819 62.3042 59.5864 51C61.1577 47.4509 60.4086 43.5536 61.8542 40.0394C64.8012 32.8748 71.4102 30.7331 70 22L69 22L44 69C45.1917 56.6165 58.0619 42.1068 63.6296 31C66.2249 25.8229 70.2364 19.5197 67 14C60.9691 25.3125 56.3162 28.1703 43 25L40 35L38 35L42 11L41 11L35 28L42 8L39 7z"/>
<path style="fill:#303030; stroke:none;" d="M41 7L42 8L41 7z"/>
<path style="fill:#a3a3a3; stroke:none;" d="M43 7L44 8L43 7z"/>
<path style="fill:#626262; stroke:none;" d="M60 7L61 8L60 7z"/>
<path style="fill:#0a0a0a; stroke:none;" d="M61.6667 7.33334L62.3333 7.66666L61.6667 7.33334z"/>
<path style="fill:#303030; stroke:none;" d="M63 7L63 9L65 9L65 7L63 7z"/>
<path style="fill:#a3a3a3; stroke:none;" d="M65 7L66 8L65 7z"/>
<path style="fill:#626262; stroke:none;" d="M36 8L37 9L36 8z"/>
<path style="fill:#303030; stroke:none;" d="M42 8L43 9L42 8z"/>
<path style="fill:#626262; stroke:none;" d="M43 8L42 21L43 21L43 8z"/>
<path style="fill:#303030; stroke:none;" d="M60 8L60 10L62 8L60 8z"/>
<path style="fill:#626262; stroke:none;" d="M62 8L61 10L62 8z"/>
<path style="fill:#0a0a0a; stroke:none;" d="M65 8L65 9L64 18L65 18L69 13L65 8z"/>
<path style="fill:#a3a3a3; stroke:none;" d="M67 8L68 9L67 8M35 9L36 10L35 9z"/>
<path style="fill:#0a0a0a; stroke:none;" d="M36 9L37 10L36 9z"/>
<path style="fill:#a3a3a3; stroke:none;" d="M37 9L38 10L37 9M40.6667 9.33334L41.3333 9.66666L40.6667 9.33334z"/>
<path style="fill:#fdfdfd; stroke:none;" d="M62 9L62 20L63 20L66 10L62 9z"/>
<path style="fill:#a3a3a3; stroke:none;" d="M65 9L66 12L67 12L65 9z"/>
<path style="fill:#303030; stroke:none;" d="M66 9L67 10L66 9z"/>
<path style="fill:#a3a3a3; stroke:none;" d="M33 10L34 11L33 10z"/>
<path style="fill:#626262; stroke:none;" d="M34 10L36 12L34 10z"/>
<path style="fill:#303030; stroke:none;" d="M35.6667 10.3333L36.3333 10.6667L35.6667 10.3333M40 10L41 11L40 10z"/>
<path style="fill:#a3a3a3; stroke:none;" d="M59 10L59 17L60 17L59 10z"/>
<path style="fill:#0a0a0a; stroke:none;" d="M60 10L60 18L61 18L60 10z"/>
<path style="fill:#a3a3a3; stroke:none;" d="M61 10L61 15L62 15L61 10M68 10L69 11L68 10z"/>
<path style="fill:#626262; stroke:none;" d="M33 11L34 12L33 11z"/>
<path style="fill:#a3a3a3; stroke:none;" d="M36 11L37 12L36 11M39 11L40 12L39 11z"/>
<path style="fill:#0a0a0a; stroke:none;" d="M40 11L39 16L40 16L40 11z"/>
<path style="fill:#303030; stroke:none;" d="M68 11L69 12L68 11z"/>
<path style="fill:#a3a3a3; stroke:none;" d="M32 12L33 13L32 12z"/>
<path style="fill:#303030; stroke:none;" d="M33 12L34 13L33 12z"/>
<path style="fill:#626262; stroke:none;" d="M39 12L40 13L39 12z"/>
<path style="fill:#303030; stroke:none;" d="M43 12L43 20L44 20L43 12z"/>
<path style="fill:#626262; stroke:none;" d="M65.3333 12.6667L65.6667 13.3333L65.3333 12.6667z"/>
<path style="fill:#303030; stroke:none;" d="M67 12L70 15L67 12z"/>
<path style="fill:#a3a3a3; stroke:none;" d="M69 12L70 13L69 12z"/>
<path style="fill:#626262; stroke:none;" d="M32 13L34 15L34 13L32 13M40 13L41 14L40 13M67 13L68 14L67 13M69 13L70 14L69 13z"/>
<path style="fill:#303030; stroke:none;" d="M32 14L33 15L32 14z"/>
<path style="fill:#a3a3a3; stroke:none;" d="M38 14L39 15L38 14M40 14L41 15L40 14M64 14L65 15L64 14M66 14L67 15L66 14z"/>
<path style="fill:#0a0a0a; stroke:none;" d="M32 15L32 27L33 27L32 15z"/>
<path style="fill:#a3a3a3; stroke:none;" d="M33.3333 15.6667L33.6667 16.3333L33.3333 15.6667z"/>
<path style="fill:#626262; stroke:none;" d="M38 15L40 17L38 15M64 15L65 16L64 15M68 15L69 16L68 15z"/>
<path style="fill:#0a0a0a; stroke:none;" d="M69 15L69 18L70 18L69 15z"/>
<path style="fill:#a3a3a3; stroke:none;" d="M31 16L31 26L32 26L31 16z"/>
<path style="fill:#303030; stroke:none;" d="M38 16L39 17L38 16z"/>
<path style="fill:#a3a3a3; stroke:none;" d="M65 16L66 17L65 16M68 16L69 17L68 16M37 17L38 18L37 17z"/>
<path style="fill:#0a0a0a; stroke:none;" d="M38 17L39 18L38 17z"/>
<path style="fill:#a3a3a3; stroke:none;" d="M39 17L40 18L39 17M61 17L62 18L61 17M63 17L64 18L63 17M70 17L71 18L70 17z"/>
<path style="fill:#626262; stroke:none;" d="M37 18L38 19L37 18z"/>
<path style="fill:#303030; stroke:none;" d="M38 18L39 19L38 18M60 18L61 19L60 18z"/>
<path style="fill:#626262; stroke:none;" d="M61 18L60 21L64 22L61 18z"/>
<path style="fill:#303030; stroke:none;" d="M63.6667 18.3333L64.3333 18.6667L63.6667 18.3333M69 18L70 19L69 18z"/>
<path style="fill:#626262; stroke:none;" d="M70 18L69 20L70 18z"/>
<path style="fill:#0a0a0a; stroke:none;" d="M37.3333 19.6667L37.6667 20.3333L37.3333 19.6667z"/>
<path style="fill:#a3a3a3; stroke:none;" d="M38 19L39 20L38 19z"/>
<path style="fill:#0a0a0a; stroke:none;" d="M63.3333 19.6667L63.6667 20.3333L63.3333 19.6667z"/>
<path style="fill:#a3a3a3; stroke:none;" d="M64 19L65 20L64 19z"/>
<path style="fill:#0a0a0a; stroke:none;" d="M70 19L67 25L68 25L70 19z"/>
<path style="fill:#a3a3a3; stroke:none;" d="M36 20L37 21L36 20z"/>
<path style="fill:#0a0a0a; stroke:none;" d="M43 20L44 25C50.5911 25.0044 60.1754 28.6824 63 21L61 25C54.4359 24.8645 47.8105 24.7612 43 20z"/>
<path style="fill:#a3a3a3; stroke:none;" d="M44 20L45 21L44 20z"/>
<path style="fill:#303030; stroke:none;" d="M61 20L62 21L61 20z"/>
<path style="fill:#a3a3a3; stroke:none;" d="M68 20L69 21L68 20M71 20L72 21L71 20z"/>
<path style="fill:#626262; stroke:none;" d="M36.6667 21.3333L37.3333 21.6667L36.6667 21.3333z"/>
<path style="fill:#a3a3a3; stroke:none;" d="M42 21L41 24L43 23L42 26L43 26L42 21z"/>
<path style="fill:#303030; stroke:none;" d="M44 21L45 22L44 21z"/>
<path style="fill:#a3a3a3; stroke:none;" d="M60 21L55 24L55 25C57.9398 24.7732 60.7771 24.4544 60 21z"/>
<path style="fill:#303030; stroke:none;" d="M69 21L72 23L69 21z"/>
<path style="fill:#626262; stroke:none;" d="M71 21L72 22L71 21z"/>
<path style="fill:#303030; stroke:none;" d="M36.3333 22.6667L36.6667 23.3333L36.3333 22.6667z"/>
<path style="fill:#a3a3a3; stroke:none;" d="M37 22L38 23L37 22z"/>
<path style="fill:#626262; stroke:none;" d="M43 22L44 23L43 22z"/>
<path style="fill:#a3a3a3; stroke:none;" d="M45.3333 22.6667L45.6667 23.3333L45.3333 22.6667z"/>
<path style="fill:#626262; stroke:none;" d="M67 22L68 23L67 22z"/>
<path style="fill:#a3a3a3; stroke:none;" d="M35 23L36 24L35 23z"/>
<path style="fill:#0a0a0a; stroke:none;" d="M42 23L43 24L42 23z"/>
<path style="fill:#a3a3a3; stroke:none;" d="M62 23L63 24L62 23z"/>
<path style="fill:#626262; stroke:none;" d="M68 23L69 24L68 23z"/>
<path style="fill:#a3a3a3; stroke:none;" d="M70.3333 23.6667L70.6667 24.3333L70.3333 23.6667z"/>
<path style="fill:#0a0a0a; stroke:none;" d="M71 23L71 29L72 29L71 23z"/>
<path style="fill:#626262; stroke:none;" d="M35.6667 24.3333L36.3333 24.6667L35.6667 24.3333M41 24L42 25L41 24z"/>
<path style="fill:#303030; stroke:none;" d="M42 24L43 25L42 24z"/>
<path style="fill:#626262; stroke:none;" d="M54 24L55 25L54 24M60 24L61 25L60 24z"/>
<path style="fill:#a3a3a3; stroke:none;" d="M66 24L67 25L66 24z"/>
<path style="fill:#303030; stroke:none;" d="M35.3333 25.6667L35.6667 26.3333L35.3333 25.6667z"/>
<path style="fill:#a3a3a3; stroke:none;" d="M36 25L37 26L36 25z"/>
<path style="fill:#0a0a0a; stroke:none;" d="M41 25L42 26L41 25z"/>
<path style="fill:#303030; stroke:none;" d="M44.6667 25.3333L45.3333 25.6667L44.6667 25.3333z"/>
<path style="fill:#626262; stroke:none;" d="M46 25L46 26L51 26L46 25z"/>
<path style="fill:#a3a3a3; stroke:none;" d="M51.6667 25.3333L52.3333 25.6667L51.6667 25.3333z"/>
<path style="fill:#626262; stroke:none;" d="M53 25L54 26L53 25z"/>
<path style="fill:#303030; stroke:none;" d="M61 25L62 26L61 25M66 25L67 26L66 25z"/>
<path style="fill:#626262; stroke:none;" d="M67 25L68 26L67 25z"/>
<path style="fill:#a3a3a3; stroke:none;" d="M72 25L72 28L73 28L72 25M34 26L35 27L34 26M40 26L41 27L40 26z"/>
<path style="fill:#303030; stroke:none;" d="M41 26L40 28L41 26z"/>
<path style="fill:#a3a3a3; stroke:none;" d="M65 26L66 27L65 26z"/>
<path style="fill:#0a0a0a; stroke:none;" d="M66 26L67 27L66 26z"/>
<path style="fill:#303030; stroke:none;" d="M32.3333 27.6667L32.6667 28.3333L32.3333 27.6667z"/>
<path style="fill:#a3a3a3; stroke:none;" d="M35 27L36 28L35 27z"/>
<path style="fill:#626262; stroke:none;" d="M41 27L42 28L41 27z"/>
<path style="fill:#a3a3a3; stroke:none;" d="M51 29L52 30L54 27L51 29z"/>
<path style="fill:#303030; stroke:none;" d="M65 27L66 28L65 27z"/>
<path style="fill:#626262; stroke:none;" d="M66 27L67 28L66 27M33 28L32 30L33 28z"/>
<path style="fill:#0a0a0a; stroke:none;" d="M40 28L41 29L40 28z"/>
<path style="fill:#a3a3a3; stroke:none;" d="M41 28L42 29L41 28z"/>
<path style="fill:#0a0a0a; stroke:none;" d="M52 28L53 29L52 28M65 28L66 29L65 28z"/>
<path style="fill:#a3a3a3; stroke:none;" d="M66 28L67 29L66 28M70 28L71 29L70 28z"/>
<path style="fill:#0a0a0a; stroke:none;" d="M33 29L34 33L35 33L33 29z"/>
<path style="fill:#626262; stroke:none;" d="M39 29L40 30L39 29z"/>
<path style="fill:#303030; stroke:none;" d="M40 29L39 31L40 29M51 29L52 30L51 29z"/>
<path style="fill:#626262; stroke:none;" d="M64 29L65 30L64 29z"/>
<path style="fill:#303030; stroke:none;" d="M65 29L66 30L65 29z"/>
<path style="fill:#626262; stroke:none;" d="M70 29L69 31L70 29z"/>
<path style="fill:#303030; stroke:none;" d="M71 29L72 30L71 29z"/>
<path style="fill:#a3a3a3; stroke:none;" d="M32 30L33 31L32 30M34 30L35 31L34 30M40 30L41 31L40 30M50 30L51 31L50 30z"/>
<path style="fill:#0a0a0a; stroke:none;" d="M51 30L52 31L51 30M64 30L63 33L64 30z"/>
<path style="fill:#a3a3a3; stroke:none;" d="M65 30L66 31L65 30z"/>
<path style="fill:#0a0a0a; stroke:none;" d="M70 30L63 38L70 30z"/>
<path style="fill:#a3a3a3; stroke:none;" d="M71 30L72 31L71 30z"/>
<path style="fill:#626262; stroke:none;" d="M34 31L35 32L34 31z"/>
<path style="fill:#a3a3a3; stroke:none;" d="M38.3333 31.6667L38.6667 32.3333L38.3333 31.6667z"/>
<path style="fill:#0a0a0a; stroke:none;" d="M39 31L40 32L39 31z"/>
<path style="fill:#303030; stroke:none;" d="M50 31L49 34L50 31z"/>
<path style="fill:#626262; stroke:none;" d="M51 31L52 32L51 31z"/>
<path style="fill:#a3a3a3; stroke:none;" d="M63 31L64 32L63 31M68 31L69 32L68 31M70 31L71 32L70 31M33 32L34 33L33 32z"/>
<path style="fill:#303030; stroke:none;" d="M39 32L40 33L39 32z"/>
<path style="fill:#a3a3a3; stroke:none;" d="M49 32L50 33L49 32M64 32L65 33L64 32M67 32L68 33L67 32M69 32L70 33L69 32z"/>
<path style="fill:#303030; stroke:none;" d="M34.6667 33.3333L35.3333 33.6667L34.6667 33.3333z"/>
<path style="fill:#626262; stroke:none;" d="M38 33L39 34L38 33z"/>
<path style="fill:#0a0a0a; stroke:none;" d="M39 33L40 34L39 33z"/>
<path style="fill:#a3a3a3; stroke:none;" d="M50 33L51 34L50 33z"/>
<path style="fill:#626262; stroke:none;" d="M62 33L63 34L62 33z"/>
<path style="fill:#303030; stroke:none;" d="M63 33L64 34L63 33z"/>
<path style="fill:#a3a3a3; stroke:none;" d="M66 33L67 34L66 33M68 33L69 34L68 33M34 34L36 36L34 34z"/>
<path style="fill:#0a0a0a; stroke:none;" d="M35 34L40 43L41 43C40.4942 38.4962 38.8388 36.3475 35 34z"/>
<path style="fill:#626262; stroke:none;" d="M36 34L37 35L36 34z"/>
<path style="fill:#a3a3a3; stroke:none;" d="M38.6667 34.3333L39.3333 34.6667L38.6667 34.3333M48 34L50 36L48 34z"/>
<path style="fill:#0a0a0a; stroke:none;" d="M49 34L50 35L49 34z"/>
<path style="fill:#a3a3a3; stroke:none;" d="M61 34L62 35L61 34z"/>
<path style="fill:#0a0a0a; stroke:none;" d="M62 34L63 35L62 34z"/>
<path style="fill:#a3a3a3; stroke:none;" d="M63 34L64 35L63 34M67 34L68 35L67 34z"/>
<path style="fill:#626262; stroke:none;" d="M37 35L38 36L37 35z"/>
<path style="fill:#0a0a0a; stroke:none;" d="M48.3333 35.6667L48.6667 36.3333L48.3333 35.6667z"/>
<path style="fill:#303030; stroke:none;" d="M61.3333 35.6667L61.6667 36.3333L61.3333 35.6667z"/>
<path style="fill:#626262; stroke:none;" d="M62 35L63 36L62 35z"/>
<path style="fill:#a3a3a3; stroke:none;" d="M66 35L67 36L66 35M39 36L40 37L39 36M47 36L48 37L47 36M60 36L62 38L60 36M63 36L64 37L63 36z"/>
<path style="fill:#626262; stroke:none;" d="M65 36L66 37L65 36z"/>
<path style="fill:#303030; stroke:none;" d="M38 37L39 38L38 37z"/>
<path style="fill:#a3a3a3; stroke:none;" d="M40 37L41 38L40 37z"/>
<path style="fill:#626262; stroke:none;" d="M47 37L48 38L47 37z"/>
<path style="fill:#303030; stroke:none;" d="M48 37L49 38L48 37z"/>
<path style="fill:#0a0a0a; stroke:none;" d="M60 37L61 38L60 37z"/>
<path style="fill:#626262; stroke:none;" d="M64 37L65 38L64 37z"/>
<path style="fill:#303030; stroke:none;" d="M40 38L41 39L40 38z"/>
<path style="fill:#0a0a0a; stroke:none;" d="M47.3333 38.6667L47.6667 39.3333L47.3333 38.6667z"/>
<path style="fill:#a3a3a3; stroke:none;" d="M48 38L49 39L48 38z"/>
<path style="fill:#626262; stroke:none;" d="M59 38L60 39L59 38z"/>
<path style="fill:#303030; stroke:none;" d="M60 38L61 39L60 38M61 40L64 38L61 40z"/>
<path style="fill:#626262; stroke:none;" d="M39 39L39 42L40 42L39 39z"/>
<path style="fill:#a3a3a3; stroke:none;" d="M41 39L41 43L42 43L41 39M46 39L47 40L46 39M58 39L60 41L58 39z"/>
<path style="fill:#0a0a0a; stroke:none;" d="M59 39L60 40L59 39z"/>
<path style="fill:#303030; stroke:none;" d="M46 40L47 41L46 40z"/>
<path style="fill:#626262; stroke:none;" d="M47 40L48 41L47 40z"/>
<path style="fill:#303030; stroke:none;" d="M58 40L57 43L58 40z"/>
<path style="fill:#626262; stroke:none;" d="M61 40L61 45L62 45L61 40z"/>
<path style="fill:#0a0a0a; stroke:none;" d="M62 40L62 47L63 47L62 40z"/>
<path style="fill:#a3a3a3; stroke:none;" d="M45 41L46 42L45 41z"/>
<path style="fill:#0a0a0a; stroke:none;" d="M46 41L47 42L46 41z"/>
<path style="fill:#626262; stroke:none;" d="M57 41L58 42L57 41z"/>
<path style="fill:#303030; stroke:none;" d="M39 42C39.5531 44.0567 40.0106 56.3226 43 51L41 52L41 51C42.0307 47.2084 41.7107 44.8945 39 42z"/>
<path style="fill:#626262; stroke:none;" d="M45.6667 42.3333L46.3333 42.6667L45.6667 42.3333z"/>
<path style="fill:#a3a3a3; stroke:none;" d="M58 42L59 43L58 42M39 43L40 44L39 43z"/>
<path style="fill:#626262; stroke:none;" d="M41.3333 43.6667L41.6667 44.3333L41.3333 43.6667z"/>
<path style="fill:#0a0a0a; stroke:none;" d="M45.3333 43.6667L45.6667 44.3333L45.3333 43.6667z"/>
<path style="fill:#a3a3a3; stroke:none;" d="M46 43L47 44L46 43z"/>
<path style="fill:#626262; stroke:none;" d="M56.6667 43.3333L57.3333 43.6667L56.6667 43.3333z"/>
<path style="fill:#a3a3a3; stroke:none;" d="M44 44L45 45L44 44z"/>
<path style="fill:#0a0a0a; stroke:none;" d="M56 44L57 45L56 44z"/>
<path style="fill:#a3a3a3; stroke:none;" d="M57 44L58 45L57 44z"/>
<path style="fill:#303030; stroke:none;" d="M44 45L45 46L44 45z"/>
<path style="fill:#626262; stroke:none;" d="M45 45L46 46L45 45M55 45L57 47L55 45z"/>
<path style="fill:#303030; stroke:none;" d="M56 45L57 46L56 45z"/>
<path style="fill:#a3a3a3; stroke:none;" d="M61 45L60 50L61 50L61 45M43 46L44 47L43 46z"/>
<path style="fill:#0a0a0a; stroke:none;" d="M44 46L45 47L44 46z"/>
<path style="fill:#a3a3a3; stroke:none;" d="M45 46L46 47L45 46z"/>
<path style="fill:#0a0a0a; stroke:none;" d="M55.3333 46.6667L55.6667 47.3333L55.3333 46.6667z"/>
<path style="fill:#626262; stroke:none;" d="M43 47L44 48L43 47z"/>
<path style="fill:#303030; stroke:none;" d="M44 47L43 49L44 47z"/>
<path style="fill:#a3a3a3; stroke:none;" d="M54 47L55 48L54 47M56 47L57 48L56 47z"/>
<path style="fill:#303030; stroke:none;" d="M62 47L60 50L61 57L62 57L62 47z"/>
<path style="fill:#a3a3a3; stroke:none;" d="M44 48L45 49L44 48z"/>
<path style="fill:#303030; stroke:none;" d="M54 48L55 49L54 48z"/>
<path style="fill:#626262; stroke:none;" d="M55 48L56 49L55 48z"/>
<path style="fill:#a3a3a3; stroke:none;" d="M42 49L43 50L42 49z"/>
<path style="fill:#0a0a0a; stroke:none;" d="M43 49L44 50L43 49z"/>
<path style="fill:#a3a3a3; stroke:none;" d="M53 49L54 50L53 49z"/>
<path style="fill:#0a0a0a; stroke:none;" d="M54 49L55 50L54 49z"/>
<path style="fill:#a3a3a3; stroke:none;" d="M55 49L56 50L55 49z"/>
<path style="fill:#626262; stroke:none;" d="M41 52L44 51L41 52z"/>
<path style="fill:#303030; stroke:none;" d="M53.6667 50.3333L54.3333 50.6667L53.6667 50.3333z"/>
<path style="fill:#a3a3a3; stroke:none;" d="M43 51L44 52L43 51M52 51L53 52L52 51z"/>
<path style="fill:#0a0a0a; stroke:none;" d="M53 51L54 52L53 51z"/>
<path style="fill:#a3a3a3; stroke:none;" d="M54 51L55 52L54 51M59 51L59 52L62 53L62 52L62 51L59 51z"/>
<path style="fill:#0a0a0a; stroke:none;" d="M60 51L61 52L60 51z"/>
<path style="fill:#303030; stroke:none;" d="M52 52L53 53L52 52z"/>
<path style="fill:#626262; stroke:none;" d="M53 52L54 53L53 52z"/>
<path style="fill:#0a0a0a; stroke:none;" d="M59 52L60 53L59 52z"/>
<path style="fill:#626262; stroke:none;" d="M40.3333 53.6667L40.6667 54.3333L40.3333 53.6667z"/>
<path style="fill:#0a0a0a; stroke:none;" d="M41 53L40 58L41 58L41 53z"/>
<path style="fill:#626262; stroke:none;" d="M42 53L43 54L42 53z"/>
<path style="fill:#a3a3a3; stroke:none;" d="M51 53L53 55L51 53z"/>
<path style="fill:#0a0a0a; stroke:none;" d="M52 53L53 54L52 53z"/>
<path style="fill:#626262; stroke:none;" d="M58 53L59 54L58 53z"/>
<path style="fill:#303030; stroke:none;" d="M59 53L60 54L59 53z"/>
<path style="fill:#fdfdfd; stroke:none;" d="M60 53L32 102L32 103C36.9465 108.948 41.7268 111.669 49 114L54 102L44 103L42 110L39 109C43.2487 101.685 41.6703 85.2291 51 82C54.6074 73.3354 64.0879 62.742 60 53z"/>
<path style="fill:#626262; stroke:none;" d="M61.3333 53.6667L61.6667 54.3333L61.3333 53.6667z"/>
<path style="fill:#303030; stroke:none;" d="M42 54L43 55L42 54z"/>
<path style="fill:#0a0a0a; stroke:none;" d="M51 54L52 55L51 54z"/>
<path style="fill:#a3a3a3; stroke:none;" d="M57 54L58 55L57 54z"/>
<path style="fill:#0a0a0a; stroke:none;" d="M58 54L59 55L58 54z"/>
<path style="fill:#a3a3a3; stroke:none;" d="M59 54L60 55L59 54M41 55L41 62L42 62L41 55z"/>
<path style="fill:#626262; stroke:none;" d="M50 55L51 56L50 55z"/>
<path style="fill:#303030; stroke:none;" d="M51 55L52 56L51 55M57 55L58 56L57 55z"/>
<path style="fill:#626262; stroke:none;" d="M58 55L59 56L58 55z"/>
<path style="fill:#a3a3a3; stroke:none;" d="M49 56L51 58L49 56z"/>
<path style="fill:#0a0a0a; stroke:none;" d="M50 56L51 57L50 56z"/>
<path style="fill:#a3a3a3; stroke:none;" d="M56 56L58 58L56 56z"/>
<path style="fill:#0a0a0a; stroke:none;" d="M57 56L58 57L57 56z"/>
<path style="fill:#626262; stroke:none;" d="M62 56L63 57L62 56z"/>
<path style="fill:#0a0a0a; stroke:none;" d="M49.3333 57.6667L49.6667 58.3333L49.3333 57.6667M56 57L54 62L55 62L56 57M61 57L62 58L61 57z"/>
<path style="fill:#a3a3a3; stroke:none;" d="M62 57L63 58L62 57z"/>
<path style="fill:#303030; stroke:none;" d="M40 58L41 59L40 58z"/>
<path style="fill:#a3a3a3; stroke:none;" d="M48 58L49 59L48 58M55 58L56 59L55 58z"/>
<path style="fill:#303030; stroke:none;" d="M61 58L60 65L61 65L61 58z"/>
<path style="fill:#626262; stroke:none;" d="M62 58L62 63L63 63L62 58z"/>
<path style="fill:#0a0a0a; stroke:none;" d="M40 59L40 68L41 68L40 59z"/>
<path style="fill:#303030; stroke:none;" d="M48 59L47 62L48 59z"/>
<path style="fill:#626262; stroke:none;" d="M49 59L50 60L49 59M56 59L57 60L56 59z"/>
<path style="fill:#a3a3a3; stroke:none;" d="M47 60L48 61L47 60z"/>
<path style="fill:#626262; stroke:none;" d="M54 60L55 61L54 60M48 61L49 62L48 61z"/>
<path style="fill:#a3a3a3; stroke:none;" d="M53 61L54 62L53 61M55 61L56 62L55 61M39 62L39 66L40 66L39 62M46 62L48 64L46 62z"/>
<path style="fill:#0a0a0a; stroke:none;" d="M47 62L48 63L47 62z"/>
<path style="fill:#303030; stroke:none;" d="M53.6667 62.3333L54.3333 62.6667L53.6667 62.3333z"/>
<path style="fill:#a3a3a3; stroke:none;" d="M41 63L42 64L41 63z"/>
<path style="fill:#303030; stroke:none;" d="M46.3333 63.6667L46.6667 64.3333L46.3333 63.6667z"/>
<path style="fill:#a3a3a3; stroke:none;" d="M52 63L53 64L52 63z"/>
<path style="fill:#0a0a0a; stroke:none;" d="M53 63L54 64L53 63z"/>
<path style="fill:#a3a3a3; stroke:none;" d="M62 63L62 71L63 71L62 63z"/>
<path style="fill:#626262; stroke:none;" d="M45 64L46 65L45 64z"/>
<path style="fill:#303030; stroke:none;" d="M52 64L53 65L52 64z"/>
<path style="fill:#626262; stroke:none;" d="M53 64L54 65L53 64z"/>
<path style="fill:#a3a3a3; stroke:none;" d="M59 64L60 65L59 64z"/>
<path style="fill:#0a0a0a; stroke:none;" d="M61 64L61 72L62 72L61 64z"/>
<path style="fill:#a3a3a3; stroke:none;" d="M44 65L45 66L44 65z"/>
<path style="fill:#0a0a0a; stroke:none;" d="M45 65L46 66L45 65z"/>
<path style="fill:#a3a3a3; stroke:none;" d="M46 65L47 66L46 65z"/>
<path style="fill:#626262; stroke:none;" d="M51 65L52 66L51 65z"/>
<path style="fill:#0a0a0a; stroke:none;" d="M52 65L51 67L52 65M59 65L60 66L59 65z"/>
<path style="fill:#626262; stroke:none;" d="M60 65L61 66L60 65M39 66L39 69L40 69L39 66z"/>
<path style="fill:#303030; stroke:none;" d="M44.3333 66.6667L44.6667 67.3333L44.3333 66.6667z"/>
<path style="fill:#626262; stroke:none;" d="M45 66L46 67L45 66z"/>
<path style="fill:#a3a3a3; stroke:none;" d="M52 66L53 67L52 66z"/>
<path style="fill:#626262; stroke:none;" d="M58 66L59 67L58 66z"/>
<path style="fill:#303030; stroke:none;" d="M59 66L60 67L59 66z"/>
<path style="fill:#fdfdfd; stroke:none;" d="M60 66L52 85L50 83L49 83L47 89C53.3677 87.905 59.9139 84.6699 58 94L59 94L64 82L61 83L60 66z"/>
<path style="fill:#a3a3a3; stroke:none;" d="M43 67L44 68L43 67z"/>
<path style="fill:#626262; stroke:none;" d="M50 67L51 68L50 67z"/>
<path style="fill:#303030; stroke:none;" d="M51 67L52 68L51 67z"/>
<path style="fill:#0a0a0a; stroke:none;" d="M58 67L59 68L58 67z"/>
<path style="fill:#a3a3a3; stroke:none;" d="M59 67L60 68L59 67z"/>
<path style="fill:#303030; stroke:none;" d="M40 68L39 71L40 68z"/>
<path style="fill:#626262; stroke:none;" d="M44 68L45 69L44 68z"/>
<path style="fill:#a3a3a3; stroke:none;" d="M49 68L48 70L49 68z"/>
<path style="fill:#0a0a0a; stroke:none;" d="M50 68L48 72L49 72L50 68z"/>
<path style="fill:#a3a3a3; stroke:none;" d="M51 68L52 69L51 68z"/>
<path style="fill:#626262; stroke:none;" d="M57 68L58 69L57 68z"/>
<path style="fill:#303030; stroke:none;" d="M58 68L59 69L58 68M50 69L51 70L50 69z"/>
<path style="fill:#0a0a0a; stroke:none;" d="M57 69L56 72L57 69z"/>
<path style="fill:#a3a3a3; stroke:none;" d="M58 69L59 70L58 69z"/>
<path style="fill:#626262; stroke:none;" d="M40 70L41 71L40 70M48 70L49 71L48 70M50 70L51 71L50 70M56 70L57 71L56 70z"/>
<path style="fill:#0a0a0a; stroke:none;" d="M39 71L39 78L40 78L39 71z"/>
<path style="fill:#a3a3a3; stroke:none;" d="M40 71L40 77L41 77L40 71M47 71L48 72L47 71M49 71L50 72L49 71M57 71L58 72L57 71z"/>
<path style="fill:#626262; stroke:none;" d="M47 72L48 73L47 72z"/>
<path style="fill:#303030; stroke:none;" d="M48 72L49 73L48 72z"/>
<path style="fill:#626262; stroke:none;" d="M55 72L56 73L55 72z"/>
<path style="fill:#303030; stroke:none;" d="M56 72L57 73L56 72M61 72L61 80L62 80L61 72z"/>
<path style="fill:#0a0a0a; stroke:none;" d="M47.3333 73.6667L47.6667 74.3333L47.3333 73.6667z"/>
<path style="fill:#a3a3a3; stroke:none;" d="M48 73L49 74L48 73z"/>
<path style="fill:#0a0a0a; stroke:none;" d="M55 73L51 83L52 83L55 73z"/>
<path style="fill:#a3a3a3; stroke:none;" d="M56 73L57 74L56 73M46 74L48 76L46 74z"/>
<path style="fill:#626262; stroke:none;" d="M54 74L55 75L54 74z"/>
<path style="fill:#303030; stroke:none;" d="M46 75L47 76L46 75z"/>
<path style="fill:#626262; stroke:none;" d="M55 75L56 76L55 75z"/>
<path style="fill:#a3a3a3; stroke:none;" d="M45 76L46 77L45 76z"/>
<path style="fill:#0a0a0a; stroke:none;" d="M46 76L47 77L46 76z"/>
<path style="fill:#626262; stroke:none;" d="M53 76L54 77L53 76z"/>
<path style="fill:#303030; stroke:none;" d="M45 77L46 78L45 77z"/>
<path style="fill:#626262; stroke:none;" d="M46 77L47 78L46 77M54 77L55 78L54 77z"/>
<path style="fill:#a3a3a3; stroke:none;" d="M38 78L39 79L38 78z"/>
<path style="fill:#303030; stroke:none;" d="M39.3333 78.6667L39.6667 79.3333L39.3333 78.6667z"/>
<path style="fill:#a3a3a3; stroke:none;" d="M44 78L46 80L44 78z"/>
<path style="fill:#0a0a0a; stroke:none;" d="M45 78L46 79L45 78z"/>
<path style="fill:#a3a3a3; stroke:none;" d="M52 78L53 79L52 78z"/>
<path style="fill:#626262; stroke:none;" d="M38 79L39 83L40 83L38 79z"/>
<path style="fill:#0a0a0a; stroke:none;" d="M44 79L45 80L44 79z"/>
<path style="fill:#626262; stroke:none;" d="M53 79L54 80L53 79z"/>
<path style="fill:#a3a3a3; stroke:none;" d="M37 80L38 81L37 80z"/>
<path style="fill:#0a0a0a; stroke:none;" d="M38 80L30 90L31 90L38 80z"/>
<path style="fill:#303030; stroke:none;" d="M43.6667 80.3333L44.3333 80.6667L43.6667 80.3333z"/>
<path style="fill:#a3a3a3; stroke:none;" d="M51 80L52 81L51 80z"/>
<path style="fill:#0a0a0a; stroke:none;" d="M61 80L61 82L63 80L61 80z"/>
<path style="fill:#626262; stroke:none;" d="M63 80L64 81L63 80z"/>
<path style="fill:#a3a3a3; stroke:none;" d="M35 81L36 82L35 81z"/>
<path style="fill:#626262; stroke:none;" d="M42 81L41 83L42 81z"/>
<path style="fill:#0a0a0a; stroke:none;" d="M43 81L39 89L40 89L43 81z"/>
<path style="fill:#a3a3a3; stroke:none;" d="M44 81L45 82L44 81z"/>
<path style="fill:#626262; stroke:none;" d="M49 81L51 84L49 81M52 81L53 82L52 81z"/>
<path style="fill:#303030; stroke:none;" d="M61 82L61 83L66 83L61 82z"/>
<path style="fill:#a3a3a3; stroke:none;" d="M34 82L35 83L34 82z"/>
<path style="fill:#626262; stroke:none;" d="M36 82L37 83L36 82z"/>
<path style="fill:#a3a3a3; stroke:none;" d="M37.6667 82.3333L38.3333 82.6667L37.6667 82.3333M43 82L44 83L43 82M48 82L49 83L48 82M50 82L51 83L50 82z"/>
<path style="fill:#626262; stroke:none;" d="M62 82L63 83L62 82z"/>
<path style="fill:#a3a3a3; stroke:none;" d="M33 83L34 84L33 83z"/>
<path style="fill:#626262; stroke:none;" d="M35 83L36 84L35 83z"/>
<path style="fill:#a3a3a3; stroke:none;" d="M42 83L43 84L42 83z"/>
<path style="fill:#0a0a0a; stroke:none;" d="M48 83L45 90L51 90L51 89L46 90L48 83z"/>
<path style="fill:#303030; stroke:none;" d="M51 83L50 85L52 85L51 83z"/>
<path style="fill:#a3a3a3; stroke:none;" d="M63 84L63 85L67 86L65 83L63 84z"/>
<path style="fill:#0a0a0a; stroke:none;" d="M65.6667 83.3333L66.3333 83.6667L65.6667 83.3333z"/>
<path style="fill:#a3a3a3; stroke:none;" d="M32 84L33 85L32 84z"/>
<path style="fill:#626262; stroke:none;" d="M34 84L35 85L34 84z"/>
<path style="fill:#a3a3a3; stroke:none;" d="M40 84L41 85L40 84z"/>
<path style="fill:#626262; stroke:none;" d="M47 84L48 85L47 84z"/>
<path style="fill:#0a0a0a; stroke:none;" d="M64 84L65 85L64 84z"/>
<path style="fill:#303030; stroke:none;" d="M66 84L67 85L66 84z"/>
<path style="fill:#626262; stroke:none;" d="M67 84L68 85L67 84z"/>
<path style="fill:#a3a3a3; stroke:none;" d="M31 85L32 86L31 85M33 85L34 86L33 85z"/>
<path style="fill:#626262; stroke:none;" d="M41 85L42 86L41 85M48 85L49 86L48 85z"/>
<path style="fill:#303030; stroke:none;" d="M63 85L64 86L63 85z"/>
<path style="fill:#626262; stroke:none;" d="M64 85L65 86L64 85z"/>
<path style="fill:#fdfdfd; stroke:none;" d="M65 85L58 95L59 103C53.8349 103.888 52.3418 108.343 51 113C63.8828 112.688 62.1782 98.7317 69 91L69 90L65 85z"/>
<path style="fill:#0a0a0a; stroke:none;" d="M67 85L68 86L67 85z"/>
<path style="fill:#a3a3a3; stroke:none;" d="M68 85L69 86L68 85z"/>
<path style="fill:#626262; stroke:none;" d="M32 86L33 87L32 86z"/>
<path style="fill:#a3a3a3; stroke:none;" d="M39 86L40 87L39 86z"/>
<path style="fill:#626262; stroke:none;" d="M46 86L47 87L46 86z"/>
<path style="fill:#a3a3a3; stroke:none;" d="M55 86L55 87L58 87L55 86M62 86L63 87L62 86z"/>
<path style="fill:#0a0a0a; stroke:none;" d="M63 86L64 87L63 86z"/>
<path style="fill:#a3a3a3; stroke:none;" d="M64 86L65 87L64 86z"/>
<path style="fill:#626262; stroke:none;" d="M67 86L68 87L67 86z"/>
<path style="fill:#303030; stroke:none;" d="M68 86L69 87L68 86z"/>
<path style="fill:#a3a3a3; stroke:none;" d="M30 87L31 88L30 87M32 87L33 88L32 87M40 87L41 88L40 87z"/>
<path style="fill:#626262; stroke:none;" d="M47 87L48 88L47 87z"/>
<path style="fill:#a3a3a3; stroke:none;" d="M52 87L53 88L52 87z"/>
<path style="fill:#303030; stroke:none;" d="M53.3333 87.6667L53.6667 88.3333L53.3333 87.6667z"/>
<path style="fill:#0a0a0a; stroke:none;" d="M54 87L54 88L58 88L57 95L58 95L59 87L54 87z"/>
<path style="fill:#626262; stroke:none;" d="M62 87L63 88L62 87z"/>
<path style="fill:#303030; stroke:none;" d="M63 87L64 88L63 87z"/>
<path style="fill:#a3a3a3; stroke:none;" d="M67 87L68 88L67 87z"/>
<path style="fill:#0a0a0a; stroke:none;" d="M68 87L69 88L68 87z"/>
<path style="fill:#a3a3a3; stroke:none;" d="M69 87L70 88L69 87z"/>
<path style="fill:#626262; stroke:none;" d="M31 88L32 89L31 88z"/>
<path style="fill:#a3a3a3; stroke:none;" d="M38 88L39 89L38 88M45 88L46 89L45 88z"/>
<path style="fill:#626262; stroke:none;" d="M50 88L52 90L50 88z"/>
<path style="fill:#303030; stroke:none;" d="M51 88L52 89L51 88z"/>
<path style="fill:#0a0a0a; stroke:none;" d="M52 88L53 89L52 88z"/>
<path style="fill:#a3a3a3; stroke:none;" d="M54 88L55 89L54 88z"/>
<path style="fill:#fdfdfd; stroke:none;" d="M45 91L47 102L56 100L57 88L45 91z"/>
<path style="fill:#626262; stroke:none;" d="M57 88L58 89L57 88z"/>
<path style="fill:#a3a3a3; stroke:none;" d="M59 88L60 89L59 88z"/>
<path style="fill:#0a0a0a; stroke:none;" d="M62 88L63 89L62 88z"/>
<path style="fill:#a3a3a3; stroke:none;" d="M63 88L64 89L63 88z"/>
<path style="fill:#303030; stroke:none;" d="M68.6667 88.3333L69.3333 88.6667L68.6667 88.3333z"/>
<path style="fill:#a3a3a3; stroke:none;" d="M29 89L30 90L29 89M31 89L32 90L31 89z"/>
<path style="fill:#303030; stroke:none;" d="M38 89L39 90L38 89z"/>
<path style="fill:#626262; stroke:none;" d="M39 89L40 90L39 89z"/>
<path style="fill:#303030; stroke:none;" d="M46 89L47 90L46 89z"/>
<path style="fill:#626262; stroke:none;" d="M47 89L48 90L47 89z"/>
<path style="fill:#a3a3a3; stroke:none;" d="M52 89L53 90L52 89z"/>
<path style="fill:#626262; stroke:none;" d="M58 89L59 90L58 89M61.6667 89.3333L62.3333 89.6667L61.6667 89.3333z"/>
<path style="fill:#a3a3a3; stroke:none;" d="M68 89L69 90L68 89z"/>
<path style="fill:#0a0a0a; stroke:none;" d="M69 89L70 90L69 89z"/>
<path style="fill:#a3a3a3; stroke:none;" d="M70 89L71 90L70 89z"/>
<path style="fill:#626262; stroke:none;" d="M29 90L30 95L31 95L29 90z"/>
<path style="fill:#303030; stroke:none;" d="M30.3333 90.6667L30.6667 91.3333L30.3333 90.6667z"/>
<path style="fill:#a3a3a3; stroke:none;" d="M37 90L38 91L37 90z"/>
<path style="fill:#0a0a0a; stroke:none;" d="M38 90L39 91L38 90M43 90L43 94L44 94L43 90z"/>
<path style="fill:#a3a3a3; stroke:none;" d="M44 90L44 94L45 94L44 90z"/>
<path style="fill:#626262; stroke:none;" d="M45 90L46 91L45 90M48 90L49 91L48 90z"/>
<path style="fill:#a3a3a3; stroke:none;" d="M49 90L50 91L49 90M58.3333 90.6667L58.6667 91.3333L58.3333 90.6667z"/>
<path style="fill:#0a0a0a; stroke:none;" d="M61 90L62 91L61 90z"/>
<path style="fill:#a3a3a3; stroke:none;" d="M62 90L63 91L62 90z"/>
<path style="fill:#303030; stroke:none;" d="M69 90L68 93L69 93L69 90z"/>
<path style="fill:#626262; stroke:none;" d="M70 90L69 92L70 90z"/>
<path style="fill:#303030; stroke:none;" d="M37 91L38 92L37 91z"/>
<path style="fill:#626262; stroke:none;" d="M38 91L39 92L38 91z"/>
<path style="fill:#a3a3a3; stroke:none;" d="M56.3333 91.6667L56.6667 92.3333L56.3333 91.6667z"/>
<path style="fill:#303030; stroke:none;" d="M60 91L61 92L60 91z"/>
<path style="fill:#626262; stroke:none;" d="M61 91L62 92L61 91z"/>
<path style="fill:#a3a3a3; stroke:none;" d="M67 91L68 92L67 91z"/>
<path style="fill:#0a0a0a; stroke:none;" d="M70 91C70.9855 98.9717 68.7304 109.699 59 111L51 114L51 115C62.1158 114.876 77.2544 103.113 70 91z"/>
<path style="fill:#303030; stroke:none;" d="M29 92L30 93L29 92z"/>
<path style="fill:#a3a3a3; stroke:none;" d="M36 92L37 93L36 92z"/>
<path style="fill:#0a0a0a; stroke:none;" d="M37 92L38 93L37 92z"/>
<path style="fill:#a3a3a3; stroke:none;" d="M59 92L60 93L59 92z"/>
<path style="fill:#0a0a0a; stroke:none;" d="M60 92L59 95L60 95L60 92z"/>
<path style="fill:#626262; stroke:none;" d="M67 92L68 93L67 92z"/>
<path style="fill:#a3a3a3; stroke:none;" d="M69 92L68 95L69 95L69 92M71 92L72 93L71 92z"/>
<path style="fill:#0a0a0a; stroke:none;" d="M29.3333 93.6667L29.6667 94.3333L29.3333 93.6667z"/>
<path style="fill:#303030; stroke:none;" d="M36 93L37 94L36 93z"/>
<path style="fill:#626262; stroke:none;" d="M37 93L38 94L37 93M56 93L56 97L57 97L56 93M60 93L61 94L60 93z"/>
<path style="fill:#0a0a0a; stroke:none;" d="M67.3333 93.6667L67.6667 94.3333L67.3333 93.6667z"/>
<path style="fill:#fdfdfd; stroke:none;" d="M69 93L61 111C66.9777 106.777 72.1882 100.601 69 93z"/>
<path style="fill:#626262; stroke:none;" d="M71 93L72 94L71 93M35 94L36 95L35 94z"/>
<path style="fill:#0a0a0a; stroke:none;" d="M36 94L35 96L36 94z"/>
<path style="fill:#303030; stroke:none;" d="M43 94L44 95L43 94z"/>
<path style="fill:#626262; stroke:none;" d="M44 94L43 96L45 96L44 94z"/>
<path style="fill:#a3a3a3; stroke:none;" d="M58 94L59 95L58 94M60 94L61 95L60 94M66 94L67 95L66 94z"/>
<path style="fill:#303030; stroke:none;" d="M70 94L71 95L70 94M29 95L29 97L31 97L31 95L29 95z"/>
<path style="fill:#a3a3a3; stroke:none;" d="M34 95L35 96L34 95M36 95L37 96L36 95z"/>
<path style="fill:#303030; stroke:none;" d="M57 95L56 100L57 100L57 95z"/>
<path style="fill:#a3a3a3; stroke:none;" d="M59 95L60 96L59 95z"/>
<path style="fill:#626262; stroke:none;" d="M66 95L67 96L66 95z"/>
<path style="fill:#303030; stroke:none;" d="M67 95L68 96L67 95z"/>
<path style="fill:#626262; stroke:none;" d="M70.3333 95.6667L70.6667 96.3333L70.3333 95.6667z"/>
<path style="fill:#303030; stroke:none;" d="M34 96L35 97L34 96z"/>
<path style="fill:#626262; stroke:none;" d="M35 96L36 97L35 96z"/>
<path style="fill:#303030; stroke:none;" d="M43 96L44 100L45 100L45 96L43 96z"/>
<path style="fill:#0a0a0a; stroke:none;" d="M66 96L67 97L66 96z"/>
<path style="fill:#a3a3a3; stroke:none;" d="M67 96L68 97L67 96M72 96L72 99L73 99L72 96z"/>
<path style="fill:#626262; stroke:none;" d="M29.3333 97.6667L29.6667 98.3333L29.3333 97.6667z"/>
<path style="fill:#0a0a0a; stroke:none;" d="M30 97C30.4952 102.636 32.1468 106.873 37 110L30 97z"/>
<path style="fill:#a3a3a3; stroke:none;" d="M33 97L34 98L33 97z"/>
<path style="fill:#0a0a0a; stroke:none;" d="M34 97L33 101L34 101L34 97z"/>
<path style="fill:#626262; stroke:none;" d="M44 97L45 98L44 97M65 97L67 99L65 97z"/>
<path style="fill:#303030; stroke:none;" d="M66 97L67 98L66 97z"/>
<path style="fill:#a3a3a3; stroke:none;" d="M70 97L71 98L70 97z"/>
<path style="fill:#626262; stroke:none;" d="M34 98L35 99L34 98z"/>
<path style="fill:#303030; stroke:none;" d="M65 98L66 99L65 98z"/>
<path style="fill:#626262; stroke:none;" d="M70.3333 98.6667L70.6667 99.3333L70.3333 98.6667z"/>
<path style="fill:#a3a3a3; stroke:none;" d="M29 99L30 100L29 99M31.6667 99.3333L32.3333 99.6667L31.6667 99.3333M34 99L35 100L34 99z"/>
<path style="fill:#626262; stroke:none;" d="M43 99L44 100L43 99z"/>
<path style="fill:#0a0a0a; stroke:none;" d="M57 99L51 101L51 102C53.5347 101.99 58.3563 102.598 57 99z"/>
<path style="fill:#a3a3a3; stroke:none;" d="M64 99L65 100L64 99z"/>
<path style="fill:#0a0a0a; stroke:none;" d="M65 99L66 100L65 99z"/>
<path style="fill:#626262; stroke:none;" d="M31 100L32 101L31 100z"/>
<path style="fill:#303030; stroke:none;" d="M32 100L33 101L32 100z"/>
<path style="fill:#a3a3a3; stroke:none;" d="M43 100L44 101L43 100z"/>
<path style="fill:#0a0a0a; stroke:none;" d="M44 100L42 105L43 105L44 102L49 103L49 102L44 100z"/>
<path style="fill:#626262; stroke:none;" d="M45 100L46 101L45 100z"/>
<path style="fill:#303030; stroke:none;" d="M46.3333 100.667L46.6667 101.333L46.3333 100.667z"/>
<path style="fill:#a3a3a3; stroke:none;" d="M52 100L53 101L52 100z"/>
<path style="fill:#626262; stroke:none;" d="M53 100L53 101L57 101L53 100z"/>
<path style="fill:#a3a3a3; stroke:none;" d="M58 100L58 103L59 103L58 100z"/>
<path style="fill:#303030; stroke:none;" d="M64 100L65 101L64 100z"/>
<path style="fill:#626262; stroke:none;" d="M65 100L66 101L65 100z"/>
<path style="fill:#303030; stroke:none;" d="M71 100L72 101L71 100z"/>
<path style="fill:#626262; stroke:none;" d="M30 101L31 102L30 101z"/>
<path style="fill:#a3a3a3; stroke:none;" d="M32 101L33 102L32 101z"/>
<path style="fill:#626262; stroke:none;" d="M43 101L44 102L43 101z"/>
<path style="fill:#a3a3a3; stroke:none;" d="M48 101L48 102L53 103L53 102L48 101z"/>
<path style="fill:#303030; stroke:none;" d="M50 101L51 102L50 101z"/>
<path style="fill:#0a0a0a; stroke:none;" d="M64 101L65 102L64 101z"/>
<path style="fill:#a3a3a3; stroke:none;" d="M65 101L66 102L65 101z"/>
<path style="fill:#626262; stroke:none;" d="M71 101L72 102L71 101z"/>
<path style="fill:#a3a3a3; stroke:none;" d="M30 102L31 103L30 102M42 102L43 103L42 102M44.6667 102.333L45.3333 102.667L44.6667 102.333z"/>
<path style="fill:#303030; stroke:none;" d="M49 102L50 103L49 102z"/>
<path style="fill:#626262; stroke:none;" d="M54 102L55 103L54 102z"/>
<path style="fill:#a3a3a3; stroke:none;" d="M55.6667 102.333L56.3333 102.667L55.6667 102.333z"/>
<path style="fill:#626262; stroke:none;" d="M57 102L58 103L57 102M63 102L65 104L63 102z"/>
<path style="fill:#303030; stroke:none;" d="M64 102L65 103L64 102z"/>
<path style="fill:#a3a3a3; stroke:none;" d="M69 102L70 103L69 102M71 102L72 103L71 102z"/>
<path style="fill:#626262; stroke:none;" d="M32 103L33 104L32 103M43 103L44 104L43 103z"/>
<path style="fill:#a3a3a3; stroke:none;" d="M46.6667 103.333L47.3333 103.667L46.6667 103.333M53 103L54 104L53 103z"/>
<path style="fill:#0a0a0a; stroke:none;" d="M54 103L53 105L54 103M63.3333 103.667L63.6667 104.333L63.3333 103.667z"/>
<path style="fill:#303030; stroke:none;" d="M70 103L71 104L70 103z"/>
<path style="fill:#626262; stroke:none;" d="M31 104L32 105L31 104z"/>
<path style="fill:#a3a3a3; stroke:none;" d="M33 104L34 105L33 104z"/>
<path style="fill:#626262; stroke:none;" d="M41 104L42 105L41 104M54 104L55 105L54 104z"/>
<path style="fill:#a3a3a3; stroke:none;" d="M62 104L63 105L62 104z"/>
<path style="fill:#626262; stroke:none;" d="M68 104L69 105L68 104z"/>
<path style="fill:#a3a3a3; stroke:none;" d="M70 104L71 105L70 104z"/>
<path style="fill:#303030; stroke:none;" d="M33 105L34 106L33 105M41 105L42 106L41 105z"/>
<path style="fill:#a3a3a3; stroke:none;" d="M42 105L43 106L42 105z"/>
<path style="fill:#626262; stroke:none;" d="M52 105L53 106L52 105z"/>
<path style="fill:#303030; stroke:none;" d="M53 105L54 106L53 105M62 105L63 106L62 105z"/>
<path style="fill:#626262; stroke:none;" d="M63 105L64 106L63 105z"/>
<path style="fill:#a3a3a3; stroke:none;" d="M67 105L68 106L67 105z"/>
<path style="fill:#626262; stroke:none;" d="M69 105L70 106L69 105M32 106L33 107L32 106z"/>
<path style="fill:#a3a3a3; stroke:none;" d="M34 106L35 107L34 106M40 106L41 107L40 106z"/>
<path style="fill:#0a0a0a; stroke:none;" d="M41 106L42 107L41 106M52 106L53 107L52 106z"/>
<path style="fill:#a3a3a3; stroke:none;" d="M53 106L54 107L53 106M61 106L62 107L61 106z"/>
<path style="fill:#0a0a0a; stroke:none;" d="M62 106L63 107L62 106z"/>
<path style="fill:#a3a3a3; stroke:none;" d="M66 106L67 107L66 106z"/>
<path style="fill:#303030; stroke:none;" d="M68 106L69 107L68 106z"/>
<path style="fill:#a3a3a3; stroke:none;" d="M35 107L36 108L35 107z"/>
<path style="fill:#303030; stroke:none;" d="M40 107L41 108L40 107z"/>
<path style="fill:#626262; stroke:none;" d="M41 107L42 108L41 107M51 107L52 108L51 107z"/>
<path style="fill:#303030; stroke:none;" d="M52 107L53 108L52 107M61 107L62 108L61 107z"/>
<path style="fill:#626262; stroke:none;" d="M62 107L63 108L62 107z"/>
<path style="fill:#a3a3a3; stroke:none;" d="M65 107L66 108L65 107z"/>
<path style="fill:#303030; stroke:none;" d="M67 107L68 108L67 107M34 108L35 109L34 108z"/>
<path style="fill:#626262; stroke:none;" d="M36 108L37 109L36 108z"/>
<path style="fill:#a3a3a3; stroke:none;" d="M39 108L40 109L39 108z"/>
<path style="fill:#0a0a0a; stroke:none;" d="M40.3333 108.667L40.6667 109.333L40.3333 108.667M51 108L52 109L51 108z"/>
<path style="fill:#a3a3a3; stroke:none;" d="M52 108L53 109L52 108M60 108L61 109L60 108z"/>
<path style="fill:#0a0a0a; stroke:none;" d="M61 108L62 109L61 108z"/>
<path style="fill:#a3a3a3; stroke:none;" d="M62 108L63 109L62 108M64 108L65 109L64 108z"/>
<path style="fill:#303030; stroke:none;" d="M66 108L65 110L66 108z"/>
<path style="fill:#626262; stroke:none;" d="M35 109L36 110L35 109z"/>
<path style="fill:#303030; stroke:none;" d="M37 109L39 112L37 109z"/>
<path style="fill:#a3a3a3; stroke:none;" d="M38 109L40 111L38 109M41 109L42 110L41 109z"/>
<path style="fill:#626262; stroke:none;" d="M50 109L51 110L50 109z"/>
<path style="fill:#303030; stroke:none;" d="M51 109L52 110L51 109M60.3333 109.667L60.6667 110.333L60.3333 109.667z"/>
<path style="fill:#626262; stroke:none;" d="M61 109L62 110L61 109M63 109L64 110L63 109z"/>
<path style="fill:#a3a3a3; stroke:none;" d="M66 109L67 110L66 109M36 110L37 111L36 110z"/>
<path style="fill:#0a0a0a; stroke:none;" d="M38 110L39 111L38 110M50 110L50 113L51 113L50 110z"/>
<path style="fill:#a3a3a3; stroke:none;" d="M51 110L52 111L51 110z"/>
<path style="fill:#626262; stroke:none;" d="M59 110L60 111L59 110z"/>
<path style="fill:#303030; stroke:none;" d="M62 110L63 111L62 110z"/>
<path style="fill:#626262; stroke:none;" d="M64 110L65 111L64 110z"/>
<path style="fill:#0a0a0a; stroke:none;" d="M39 111L39 112L48 115L48 114L39 111z"/>
<path style="fill:#626262; stroke:none;" d="M40 111L41 112L40 111z"/>
<path style="fill:#a3a3a3; stroke:none;" d="M49 111L50 112L49 111z"/>
<path style="fill:#626262; stroke:none;" d="M60 111L61 112L60 111z"/>
<path style="fill:#a3a3a3; stroke:none;" d="M63 111L64 112L63 111z"/>
<path style="fill:#626262; stroke:none;" d="M39 112L40 113L39 112z"/>
<path style="fill:#303030; stroke:none;" d="M42 112L43 113L42 112z"/>
<path style="fill:#a3a3a3; stroke:none;" d="M43.6667 112.333L44.3333 112.667L43.6667 112.333z"/>
<path style="fill:#626262; stroke:none;" d="M49 112L50 113L49 112z"/>
<path style="fill:#a3a3a3; stroke:none;" d="M57 112L58 113L57 112z"/>
<path style="fill:#626262; stroke:none;" d="M58 112L59 113L58 112M61 112L62 113L61 112M41 113L42 114L41 113M46 113L47 114L46 113z"/>
<path style="fill:#a3a3a3; stroke:none;" d="M47 113L48 114L47 113M49 113L49 114L56 114L49 113z"/>
<path style="fill:#626262; stroke:none;" d="M56 113L57 114L56 113M59 113L60 114L59 113z"/>
<path style="fill:#a3a3a3; stroke:none;" d="M60 113L61 114L60 113M44 114L45 115L44 114z"/>
<path style="fill:#303030; stroke:none;" d="M45 114L46 115L45 114M48 114L48 115L51 115L48 114z"/>
<path style="fill:#a3a3a3; stroke:none;" d="M58 114L59 115L58 114M57 115L58 116L57 115z"/>
</svg>
